<svg width="400" height="225" viewBox="0 0 400 225" fill="none" xmlns="http://www.w3.org/2000/svg">
<rect x="59" y="36" width="84" height="40" rx="10" fill="#5AC991"/>
<rect x="257" y="36" width="84" height="40" rx="10" fill="#D9D9D9"/>
<rect x="59" y="92" width="84" height="40" rx="10" fill="#5AC991"/>
<rect x="257" y="92" width="84" height="40" rx="10" fill="#D9D9D9"/>
<rect x="59" y="148" width="84" height="40" rx="10" fill="#D9D9D9"/>
<rect x="257" y="148" width="84" height="40" rx="10" fill="#5AC991"/>
<circle cx="167" cy="56" r="10" fill="#474747"/>
<circle cx="234" cy="56" r="10" fill="#474747"/>
<circle cx="167" cy="112" r="10" fill="#474747"/>
<circle cx="234" cy="112" r="10" fill="#474747"/>
<circle cx="167" cy="168" r="10" fill="#474747"/>
<circle cx="234" cy="168" r="10" fill="#474747"/>
<circle cx="167" cy="56" r="7" fill="#D9D9D9"/>
<circle cx="234" cy="56" r="7" fill="#D9D9D9"/>
<circle cx="167" cy="112" r="7" fill="#D9D9D9"/>
<circle cx="234" cy="112" r="7" fill="#D9D9D9"/>
<circle cx="167" cy="168" r="7" fill="#D9D9D9"/>
<circle cx="234" cy="168" r="7" fill="#D9D9D9"/>
<line x1="167.247" y1="111.886" x2="234.182" y2="55.7527" stroke="#A11E1E" stroke-width="4" stroke-linecap="round"/>
<path d="M167 56L234 168" stroke="#A11E1E" stroke-width="4" stroke-linecap="round"/>
</svg>
