<svg width="99" height="99" viewBox="0 0 99 99" fill="none" xmlns="http://www.w3.org/2000/svg">
<path d="M86.942 24.2678L53.5991 5.52736C51.07 4.11197 47.9298 4.11197 45.4007 5.52736L12.0578 24.2678C9.50547 25.6986 7.91992 28.3824 7.91992 31.2596V68.7404C7.91992 71.6176 9.50547 74.3014 12.0578 75.7323L45.4007 94.4727C46.6691 95.1842 48.0845 95.54 49.4999 95.54C50.9153 95.54 52.3307 95.1842 53.5991 94.4727L86.942 75.7323C89.4944 74.3014 91.0799 71.6176 91.0799 68.7404V31.2596C91.0799 28.3824 89.4944 25.6986 86.942 24.2678ZM49.4999 73.76C36.3979 73.76 25.7399 63.1021 25.7399 50C25.7399 36.898 36.3979 26.24 49.4999 26.24C56.9868 26.24 63.9013 29.7128 68.395 35.6296L59.717 40.6492C57.1105 37.7952 53.4058 36.14 49.4999 36.14C41.8584 36.14 35.6399 42.3585 35.6399 50C35.6399 57.6416 41.8584 63.86 49.4999 63.86C53.4058 63.86 57.1105 62.2049 59.717 59.3509L68.395 64.3705C63.9013 70.2873 56.9868 73.76 49.4999 73.76ZM73.2599 51.98H69.2999V55.94H65.3399V51.98H61.3799V48.02H65.3399V44.06H69.2999V48.02H73.2599V51.98ZM87.1199 51.98H83.1599V55.94H79.1999V51.98H75.2399V48.02H79.1999V44.06H83.1599V48.02H87.1199V51.98Z" fill="black"/>
</svg>
