<svg width="100" height="100" viewBox="0 0 100 100" fill="none" xmlns="http://www.w3.org/2000/svg">
<path d="M34.7441 22.0202C53.6929 11.0808 76.4672 14.8205 85.4863 30.442C94.5031 46.0636 86.3548 67.6549 67.4082 78.5963C60.0756 82.8279 52.1728 84.8629 44.7188 84.8629C32.9026 84.8629 22.1943 79.7495 16.666 70.1725C7.64721 54.5531 15.7955 32.9595 34.7441 22.0202ZM57.4775 20.1979C50.7819 20.1979 43.6326 22.0469 36.9775 25.8883C20.1084 35.6279 12.774 54.501 20.5342 67.9391C28.2926 81.3772 48.3056 84.4657 65.1748 74.7262C82.044 64.9866 89.3766 46.1128 81.6182 32.6725C76.922 24.5382 67.7415 20.198 57.4775 20.1979Z" fill="black" stroke="white" stroke-width="0.3"/>
<path d="M46.8752 27.0833C50.9022 27.0833 54.1668 23.8187 54.1668 19.7917C54.1668 15.7646 50.9022 12.5 46.8752 12.5C42.8481 12.5 39.5835 15.7646 39.5835 19.7917C39.5835 23.8187 42.8481 27.0833 46.8752 27.0833Z" fill="white"/>
<path d="M46.875 10.5671C51.9609 10.5671 56.0996 14.7058 56.0996 19.7917C56.0996 24.8776 51.9609 29.0163 46.875 29.0163C41.7891 29.0163 37.6504 24.8776 37.6504 19.7917C37.6504 14.7058 41.7891 10.5671 46.875 10.5671ZM46.875 14.4333C43.9213 14.4333 41.5166 16.838 41.5166 19.7917C41.5166 22.7453 43.9213 25.1501 46.875 25.1501C49.8287 25.1501 52.2334 22.7453 52.2334 19.7917C52.2334 16.838 49.8287 14.4333 46.875 14.4333Z" fill="black" stroke="white" stroke-width="0.3"/>
<path d="M84.3752 39.5833C88.4022 39.5833 91.6668 36.3187 91.6668 32.2917C91.6668 28.2646 88.4022 25 84.3752 25C80.3481 25 77.0835 28.2646 77.0835 32.2917C77.0835 36.3187 80.3481 39.5833 84.3752 39.5833Z" fill="white"/>
<path d="M84.375 22.7663C89.6266 22.7663 93.9004 27.0401 93.9004 32.2917C93.9004 37.5433 89.6266 41.8171 84.375 41.8171C79.1234 41.8171 74.8496 37.5433 74.8496 32.2917C74.8496 27.0401 79.1234 22.7663 84.375 22.7663ZM84.375 27.2331C81.587 27.2331 79.3164 29.5037 79.3164 32.2917C79.3164 35.0797 81.587 37.3503 84.375 37.3503C87.163 37.3503 89.4336 35.0797 89.4336 32.2917C89.4336 29.5037 87.163 27.2331 84.375 27.2331Z" fill="black" stroke="white" stroke-width="0.3"/>
<path d="M76.0417 77.0833C80.0687 77.0833 83.3333 73.8187 83.3333 69.7917C83.3333 65.7646 80.0687 62.5 76.0417 62.5C72.0146 62.5 68.75 65.7646 68.75 69.7917C68.75 73.8187 72.0146 77.0833 76.0417 77.0833Z" fill="white"/>
<path d="M76.0415 60.2663C81.2931 60.2663 85.5669 64.5401 85.5669 69.7917C85.5669 75.0433 81.2931 79.3171 76.0415 79.3171C70.7899 79.3171 66.5161 75.0433 66.5161 69.7917C66.5161 64.5401 70.7899 60.2663 76.0415 60.2663ZM76.0415 64.7331C73.2535 64.7331 70.9829 67.0037 70.9829 69.7917C70.9829 72.5797 73.2535 74.8503 76.0415 74.8503C78.8295 74.8503 81.1001 72.5797 81.1001 69.7917C81.1001 67.0037 78.8295 64.7331 76.0415 64.7331Z" fill="black" stroke="white" stroke-width="0.3"/>
<path d="M34.3752 87.5C38.4022 87.5 41.6668 84.2354 41.6668 80.2083C41.6668 76.1813 38.4022 72.9167 34.3752 72.9167C30.3481 72.9167 27.0835 76.1813 27.0835 80.2083C27.0835 84.2354 30.3481 87.5 34.3752 87.5Z" fill="white"/>
<path d="M34.375 70.6829C39.6266 70.6829 43.9004 74.9567 43.9004 80.2083C43.9004 85.4599 39.6266 89.7337 34.375 89.7337C29.1234 89.7337 24.8496 85.4599 24.8496 80.2083C24.8496 74.9567 29.1234 70.6829 34.375 70.6829ZM34.375 75.1497C31.587 75.1497 29.3164 77.4203 29.3164 80.2083C29.3164 82.9963 31.587 85.2669 34.375 85.2669C37.163 85.2669 39.4336 82.9963 39.4336 80.2083C39.4336 77.4203 37.163 75.1497 34.375 75.1497Z" fill="black" stroke="white" stroke-width="0.3"/>
<path d="M15.6252 58.3333C19.6522 58.3333 22.9168 55.0687 22.9168 51.0417C22.9168 47.0146 19.6522 43.75 15.6252 43.75C11.5981 43.75 8.3335 47.0146 8.3335 51.0417C8.3335 55.0687 11.5981 58.3333 15.6252 58.3333Z" fill="white"/>
<path d="M15.625 41.5163C20.8766 41.5163 25.1504 45.7901 25.1504 51.0417C25.1504 56.2933 20.8766 60.5671 15.625 60.5671C10.3734 60.5671 6.09961 56.2933 6.09961 51.0417C6.09961 45.7901 10.3734 41.5163 15.625 41.5163ZM15.625 45.9831C12.837 45.9831 10.5664 48.2537 10.5664 51.0417C10.5664 53.8297 12.837 56.1003 15.625 56.1003C18.413 56.1003 20.6836 53.8297 20.6836 51.0417C20.6836 48.2537 18.413 45.9831 15.625 45.9831Z" fill="black" stroke="white" stroke-width="0.3"/>
</svg>
