<svg width="100" height="100" viewBox="0 0 100 100" fill="none" xmlns="http://www.w3.org/2000/svg">
<path d="M84.7601 11.11C84.1268 10.4033 83.2235 10 82.2768 10H17.7235C16.7768 10 15.8735 10.4033 15.2401 11.11C14.6068 11.8167 14.3068 12.76 14.4101 13.7L21.7501 79.7767C21.8968 81.12 22.8468 82.2433 24.1468 82.6133L49.0801 89.7367C49.3801 89.8233 49.6901 89.8667 49.9968 89.8667C50.3035 89.8667 50.6135 89.8233 50.9135 89.7367L75.8468 82.6133C77.1468 82.2433 78.0935 81.12 78.2435 79.7767L85.5868 13.7C85.6935 12.76 85.3935 11.8167 84.7601 11.11ZM68.7635 34.7667H38.9968L39.7035 43.24H68.0468L65.9201 68.2733L50.0101 73.3333L49.8535 73.2833L34.1201 68.2667L33.2601 58.0667H40.9668L41.3035 62.03L50.0935 63.9667L58.7301 62.0267L59.6468 51.3167H32.6801L30.5935 26.6667H69.4568L68.7635 34.7667Z" fill="black"/>
</svg>
