<svg width="93" height="93" viewBox="0 0 93 93" fill="none" xmlns="http://www.w3.org/2000/svg">
<g clip-path="url(#clip0_155_325)">
<mask id="mask0_155_325" style="mask-type:luminance" maskUnits="userSpaceOnUse" x="0" y="0" width="93" height="93">
<path d="M0.742676 0.742905H92.2551V92.2553H0.742676V0.742905Z" fill="white"/>
</mask>
<g mask="url(#mask0_155_325)">
<path fill-rule="evenodd" clip-rule="evenodd" d="M70.8778 85.0823C62.8934 85.0823 57.7315 81.275 55.2154 76.2969L62.2157 72.2427C64.0597 75.254 66.453 77.4634 70.6947 77.4634C74.2545 77.4634 76.5284 75.6839 76.5284 73.2268C76.5284 69.5295 71.5958 68.0835 68.1141 66.5921C61.9093 63.9519 57.7911 60.6348 57.7911 53.6296C57.7911 47.1821 62.7054 42.2686 70.3882 42.2686C75.8509 42.2686 79.786 44.1716 82.6092 49.1453L75.9154 53.4466C74.4417 50.8064 72.8453 49.7634 70.3881 49.7634C67.8663 49.7634 66.2699 51.3599 66.2699 53.4466C66.2699 56.0271 67.8664 57.0701 71.5546 58.6673C79.2828 61.98 85.1307 64.5833 85.1307 73.1035C85.1307 80.8452 79.0494 85.0825 70.8776 85.0825L70.8778 85.0823ZM51.0735 72.1192C51.0735 81.0281 45.5874 85.7366 37.969 85.7366C31.0872 85.7366 26.9649 83.1057 24.9378 78.5298H24.8186L31.8153 73.6383C33.1649 76.0316 34.3818 77.7288 37.3285 77.7288C40.1567 77.7288 41.9227 76.297 41.9227 72.0008V41.9247H51.0736L51.0735 72.1192ZM0.742676 92.2559H92.2551V0.743515H0.742676V92.2559Z" fill="black"/>
</g>
</g>
<defs>
<clipPath id="clip0_155_325">
<rect width="93" height="93" fill="white"/>
</clipPath>
</defs>
</svg>
