<svg width="112" height="112" viewBox="0 0 112 112" fill="none" xmlns="http://www.w3.org/2000/svg">
<g clip-path="url(#clip0_155_337)">
<path d="M65.9383 -0.0583344C71.6428 11.4366 45.5129 18.5298 43.0862 28.1021C40.8649 36.8978 58.5988 47.1188 58.6175 47.1188C55.922 43.4825 53.9741 40.4776 51.2675 34.8104C46.6904 25.2269 78.2732 15.3379 65.9383 -0.0583344ZM84.831 15.6698C84.831 15.6698 64.9086 16.8727 63.8894 29.0135C63.4376 34.4194 69.1247 37.3067 69.2852 41.2417C69.4233 44.4561 65.8873 47.126 65.8873 47.126C65.8873 47.126 71.721 46.231 73.7258 41.3292C75.9434 35.8934 69.9915 31.9266 70.656 27.5698C71.2907 23.4034 84.831 15.6698 84.831 15.6698ZM47.6435 47.126C47.6435 47.126 27.1685 46.854 27.1685 52.551C27.1648 58.5057 53.9761 58.9222 73.1206 55.2635C73.1206 55.2635 77.4638 52.8837 78.8227 51.6031C66.2787 54.1157 38.405 53.3896 38.405 51.2094C38.405 49.2008 47.6435 47.126 47.6435 47.126ZM88.4112 47.2792C86.1619 47.1848 83.6999 47.9008 81.5789 49.4156C86.0104 48.4562 89.7456 51.183 89.7456 54.3302C89.7456 61.4011 79.5883 68.0969 79.5883 68.0969C79.5883 68.0969 95.3164 66.2877 95.3164 54.6583C95.3164 49.8563 92.1601 47.4364 88.4112 47.2792ZM40.381 57.6115C37.1778 57.6077 32.4112 60.1501 32.4112 62.5917C32.4112 67.5047 56.5077 71.2911 74.3456 64.1156L68.1696 60.2292C56.0773 64.1977 33.7805 62.924 40.381 57.6115ZM44.9091 68.0896C40.5075 68.0896 37.6539 71.0503 37.6539 73.2156C37.6539 79.9207 63.9296 80.1494 74.3456 73.3323L67.7248 69.2052C59.952 72.7705 40.4105 73.2565 44.9091 68.0896ZM25.8341 78.3635C19.5597 78.1669 16.6831 81.3728 16.6831 83.9927C16.6831 97.918 84.831 97.2508 84.831 83.0156C84.831 80.6524 82.1993 79.5282 81.2435 78.9906C86.8062 92.5986 24.8279 91.6658 24.8279 83.6354C24.8279 81.8061 28.1097 79.9405 32.2873 80.7917C32.2873 80.7917 30.756 79.0134 28.7362 78.6625C27.6998 78.4838 26.7305 78.3916 25.8341 78.3635ZM95.3164 88.8344C84.501 99.4221 54.728 105.85 27.1685 99.3125C54.8587 110.535 95.1858 101.83 95.3164 88.8344Z" fill="black"/>
</g>
<defs>
<clipPath id="clip0_155_337">
<rect width="112" height="112" fill="white"/>
</clipPath>
</defs>
</svg>
