<svg width="100" height="100" viewBox="0 0 100 100" fill="none" xmlns="http://www.w3.org/2000/svg">
<g clip-path="url(#clip0_155_367)">
<path d="M31.4998 0C31.9139 0.609376 32.7655 1.19531 31.9373 2C30.9061 1.19531 29.8592 0.59375 27.3748 0.1875C27.9998 0.789062 28.992 1.39063 28.3748 2C27.1327 1.60156 25.7186 1.20313 24.0623 1C24.8905 1.80469 25.492 2.40625 24.8748 2.8125C23.6327 2.21094 21.6092 1.78906 19.7498 2.1875L20.9373 3.4375C21.1405 3.64063 18.0467 3.625 16.1873 3.625C16.8045 4.63281 17.6483 5.64063 18.0623 7.25C17.8592 7.45313 16.828 7.25 15.9998 7.25C16.828 9.26563 18.4842 9.64063 19.3123 10.25C18.6873 10.6484 17.8905 10.4531 17.0623 10.25C17.6795 11.6562 19.0858 12.6797 20.1248 13.6875C19.9139 13.8906 19.492 14.1406 18.2498 13.9375C19.2811 15.1484 20.5545 16.1328 21.9998 16.9375C21.5858 17.3359 20.7655 17.3125 19.9373 17.3125C21.1717 18.7266 22.8436 19.3828 24.4998 20.1875C23.6717 20.7891 22.9998 20.5625 22.3748 20.5625C23.4139 21.5703 25.328 21.9609 27.1873 22.5625C26.7733 23.1641 26.5155 23.1719 25.6873 23.375C27.5467 24.3828 30.4373 24.0078 31.0623 24.8125C31.0623 25.4141 30.492 25.7969 29.8748 26C32.9764 26 41.2264 25.8203 42.8748 19.5625C39.7733 16.1406 33.9608 12.0859 24.2498 7.25C31.8983 9.67188 38.7108 13.1172 44.4998 17.75C51.3202 14.7266 46.5545 6.85156 43.2498 3.625C43.0467 4.42969 42.8983 4.85938 42.6873 5.0625C41.6561 3.85156 40.8202 2.63281 39.3748 1.625C39.3748 2.23438 39.7655 2.83594 38.9373 3.4375C38.1092 2.42969 37.0545 1.61719 35.8123 0.8125C36.4295 1.82031 36.0389 2.21875 35.6248 2.625C34.5936 1.61719 33.5702 0.804688 31.4998 0ZM68.1873 0C66.3123 0.609376 65.2889 1.625 64.2498 2.4375C63.8358 2.03125 63.4373 1.64063 64.0623 0.625C62.6014 1.4375 61.7655 2.23438 60.9373 3.25C60.1092 2.84375 60.4998 2.04688 60.4998 1.4375C59.0467 2.65625 58.2264 3.65625 57.1873 4.875C56.9764 4.875 56.7655 4.25 56.5623 3.4375C53.2342 6.48438 48.6873 14.3828 55.7498 17.625C61.5702 12.9609 68.4295 9.75781 76.1248 7.125C66.3514 11.9922 60.4998 16.0547 57.3748 19.5C59.0389 25.7891 67.3827 26.1406 70.4998 25.9375C69.8748 25.5312 69.4608 25.3594 69.2498 24.75C70.0858 24.3438 72.7577 24.7656 74.6248 23.75C73.7967 23.5469 73.6014 23.5469 73.1873 22.9375C74.8514 22.3281 76.8983 21.8906 77.9373 20.875C77.3202 20.875 76.703 21.1094 75.8748 20.5C77.328 19.6953 79.1952 18.8438 80.4373 17.625C79.6092 17.4219 78.5858 17.4531 78.3748 17.25C79.828 16.2344 81.0858 15.2031 82.1248 14.1875C81.0858 14.3906 80.4608 14.2031 80.2498 14C81.2889 12.7812 82.7498 11.9844 83.3748 10.5625C82.5467 10.9688 81.6873 10.9688 81.0623 10.5625C81.4764 9.75 83.1717 9.34375 83.9998 7.3125C83.1717 7.3125 82.1483 7.51563 81.9373 7.3125C82.3592 5.6875 83.1873 4.64063 83.8123 3.625C81.9373 3.625 79.0233 3.64063 78.8123 3.4375L80.0623 2.25C78.1873 1.84375 76.3358 2.40625 74.8748 2.8125C74.2498 2.20313 74.8592 1.60938 75.6873 1C74.0311 1.20313 72.5545 1.59375 71.3123 2C70.6873 1.39063 71.7498 0.796876 72.3748 0.1875C69.8827 0.796876 68.8514 1.39063 67.8123 2C66.9842 1.1875 67.7655 0.609376 68.1873 0ZM50.5623 26.5C44.9998 26.5 39.4373 30.7734 39.4373 33.125C39.4373 36.1172 43.9373 39.375 50.5623 39.375C57.4061 39.375 61.6873 37.0234 61.6873 33.8125C61.6873 30.1797 55.4764 26.5 50.5623 26.5ZM33.6873 28.75C25.8748 28.8047 19.8123 34.2109 20.1873 43.1875C20.3983 47.25 40.5467 29.7031 37.1248 29.0625C35.9452 28.8516 34.8045 28.7422 33.6873 28.75ZM66.4373 29.0625C65.328 29.0312 64.1795 29.125 62.9998 29.3125C59.578 29.7422 79.6639 47.2266 79.8748 43.375C80.0623 34.5859 74.2108 29.2656 66.4373 29.0625ZM62.4998 40C60.6483 40.0078 58.7889 40.5 57.1873 41.5C52.2655 44.7109 51.4061 52.1406 55.2498 58.125C59.3123 64.1094 66.6405 66.2969 71.5623 62.875C76.4764 59.6641 77.2889 52.1719 73.4373 46.1875C70.7889 42.2188 66.5702 39.9766 62.4998 40ZM37.5623 40.5C33.8436 40.8203 30.0936 43.0703 27.6873 46.8125C23.6248 52.7969 24.492 60.2891 29.6248 63.5C34.5467 66.7109 41.8123 64.5859 45.8748 58.8125C49.9373 52.8281 49.0702 45.3359 43.9373 42.125C42.0155 40.8438 39.7967 40.3125 37.5623 40.5ZM81.0623 47C76.2264 47.0391 79.7733 69.4219 84.1248 67.5625C88.828 63.7109 90.5389 52.4062 81.5623 47.0625C81.3905 47.0156 81.2186 47 81.0623 47ZM18.9998 47.375C18.8436 47.375 18.6717 47.3906 18.4998 47.4375C9.51547 52.5703 11.0155 64.1484 15.9373 68C20.2889 69.8672 23.8358 47.4141 18.9998 47.375ZM50.8123 62.625C43.9686 62.625 38.6248 67.7969 38.6248 74V74.1875C38.6248 80.3906 43.9686 85.3125 50.8123 85.3125C57.6483 85.3125 62.9998 80.2031 62.9998 74C62.9998 67.8047 57.4373 62.8438 50.8123 62.625ZM77.8748 67.0625C74.9998 67.1094 71.5233 69.875 68.3123 73.5625C64.4608 77.8359 62.3436 85.9297 65.1248 88.5C67.9061 90.4219 74.9373 90.2031 80.0623 82.9375C83.6952 78.0156 82.4217 70.1406 80.4998 68C79.6952 67.3594 78.8358 67.0469 77.8748 67.0625ZM22.3123 68.75C21.5702 68.8281 20.828 69.1016 20.1873 69.5C18.0467 71.2188 17.6639 76.9766 20.8748 82.75C25.578 89.5938 32.1561 90.2109 34.9373 88.5C37.9295 86.3594 36.2342 78.875 32.8123 74.8125C29.5077 70.9922 25.5311 68.4297 22.3123 68.75ZM48.8748 88.75C44.1873 89.0547 38.6248 90.9453 38.6248 93.1875C38.6248 95.1094 44.578 100.273 50.5623 100.062C56.3358 100.281 62.3123 95.125 62.3123 92.5625C62.1014 90.2031 55.7264 88.5391 50.8123 88.75C50.1952 88.7266 49.5467 88.7031 48.8748 88.75Z" fill="black"/>
</g>
<defs>
<clipPath id="clip0_155_367">
<rect width="100" height="100" fill="white"/>
</clipPath>
</defs>
</svg>
