<svg width="223" height="83" viewBox="0 0 223 83" fill="none" xmlns="http://www.w3.org/2000/svg">
<path d="M202.42 68.8866C198.035 69.2227 195.336 69.5587 194.661 69.8947L194.324 70.2308C193.312 70.5668 191.962 71.2389 190.275 71.2389C188.251 71.2389 185.889 70.5668 184.203 68.8866C183.528 68.2146 182.853 67.5425 182.516 66.8704H174.756C173.407 66.8704 172.057 66.5344 171.045 65.8624C170.708 66.1984 170.033 66.1984 169.696 66.5344C166.997 67.8785 164.635 67.8786 162.948 67.8786H161.262C156.201 67.8786 152.153 66.1984 149.454 63.1741C147.767 64.8543 145.405 65.8624 143.044 65.8624L130.561 66.1984C126.175 66.1984 122.127 62.8381 121.452 58.8057C119.765 59.8138 118.079 60.4858 116.054 60.4858C114.03 60.4858 112.006 59.8138 110.319 58.8057C109.982 58.4696 109.644 58.1336 109.307 58.1336C108.295 58.8057 106.945 58.8057 105.596 58.8057H104.584C103.234 62.8381 100.873 65.5263 97.1617 67.2065C95.4749 67.8785 93.4507 68.5506 91.7639 68.5506C90.077 68.5506 88.0528 68.2146 86.366 67.5425C84.6791 66.8705 83.3297 65.8624 82.3176 64.8543C81.6428 65.1903 80.9681 65.1903 80.2934 65.5263L70.5097 66.8704H69.1602C68.1481 66.8704 67.4734 66.8704 66.4613 66.5344C65.1118 67.8785 63.425 68.5506 62.0755 69.2227C59.3766 70.5668 57.015 70.5668 55.3281 70.5668H53.6413C47.5687 70.5668 42.8455 67.8785 40.1466 64.1822C37.4477 65.8624 34.074 66.8704 31.0377 66.8704H29.0135C29.0135 67.2065 28.6761 67.2065 28.6761 67.5425C26.9893 69.2227 24.6277 70.5668 22.2661 70.5668H21.5914C16.8682 70.5668 12.8198 66.8704 12.4825 61.83V61.4939C12.4825 59.8138 12.1451 56.7895 12.4825 53.4292C12.4825 51.0769 12.8198 47.3806 12.8198 47.3806C12.8198 45.0283 13.8319 43.0122 15.1814 41.332C13.8319 38.6437 13.4946 35.6194 14.1693 32.2591V31.587C14.5067 29.5709 14.844 26.5466 16.1935 23.5223C18.5551 19.1539 22.9409 16.8016 28.0014 16.8016H30.3629C32.0498 15.4575 34.074 14.4494 36.4356 14.4494C41.4961 14.4494 45.5445 18.8178 45.5445 23.8583V27.5547C47.2313 26.8826 49.2555 26.5466 51.2797 26.5466C52.2918 26.5466 52.9666 26.5466 53.9787 26.8826C55.3281 25.2024 57.3524 24.1943 59.3766 23.8583C59.7139 23.1862 60.0513 22.8502 60.3887 22.1781C61.7381 20.1619 64.0997 18.8178 66.4613 18.4818C68.4855 18.1458 72.5339 17.8097 77.257 17.8097C82.6549 17.8097 87.0407 18.4818 90.4144 20.1619C91.4265 16.4656 94.1254 13.7773 98.1738 13.1053L106.945 11.7611H108.295C110.994 11.7611 113.355 12.7692 115.042 14.7854C115.717 15.4575 116.729 16.8016 117.066 17.8097L117.404 18.8178C119.091 17.8097 120.777 17.1377 122.802 17.1377L135.959 16.8016C142.369 16.8016 148.104 16.4656 148.104 16.1296H148.779C151.141 16.1296 153.839 17.1377 155.526 18.8178C156.876 20.1619 157.888 21.8421 158.225 23.8583H158.9C159.912 23.8583 160.587 23.8583 161.599 24.1943C162.948 22.5142 164.973 21.5061 166.997 21.17C168.684 18.8178 171.72 16.8016 175.094 16.8016H183.865C185.552 14.7854 187.914 13.4413 190.95 13.4413H201.746C206.806 13.4413 210.855 17.4737 211.192 22.5142C211.192 26.2105 209.168 29.5709 206.131 30.915V51.413C208.83 52.7571 210.855 55.7814 211.192 59.1417C211.529 64.1822 207.481 68.5506 202.42 68.8866Z" fill="#0C0C0C"/>
<path d="M108.969 28.5628L106.608 40.6599L113.355 39.6518L108.969 28.5628Z" fill="black"/>
<path d="M28.3385 40.3239C25.9769 39.9879 24.6274 38.3077 25.3021 33.6032V32.9312C25.9769 28.8988 26.3143 27.8907 28.3385 27.8907C29.0132 27.8907 29.6879 28.2267 30.3627 28.8988C31.0374 29.5709 32.3869 30.579 33.0616 32.5951C33.7363 33.9393 33.7363 34.9474 34.0737 35.9555V37.2996C34.0737 37.9717 34.7484 38.6437 35.7605 38.9798C36.7726 39.3158 37.7848 38.3077 38.1221 37.2996C38.1221 37.2996 38.7969 24.5304 38.7969 24.1943C38.7969 23.1862 37.7847 22.1781 36.7726 22.1781C35.7605 22.1781 34.7484 23.1862 34.7484 24.1943V27.8907C33.0616 26.2105 31.0374 24.5304 28.6758 24.5304C22.2658 23.5223 21.5911 29.2348 21.2537 32.5951V33.2672C20.579 39.6518 22.6032 43.6842 27.6637 44.6923C33.0616 45.7004 36.7726 46.7085 36.7726 50.0688C36.7726 51.413 36.0979 52.7571 34.7484 53.7652C33.399 55.1093 31.3748 55.4454 29.3506 55.1093C28.6758 55.1093 28.3385 54.7733 27.6637 54.7733C26.989 54.4373 24.9648 53.4292 24.29 52.085C23.9527 50.7409 23.6153 49.0607 23.6153 48.0526V47.3806C23.6153 46.3725 22.6032 45.3644 21.5911 45.3644C20.579 45.3644 19.5669 46.3725 19.5669 47.3806C19.5669 47.3806 19.5669 51.413 19.2295 53.7652C18.8922 57.7976 19.2295 60.8219 19.2295 61.1579C19.2295 62.166 20.2416 63.1741 21.2537 63.1741C22.2658 63.1741 23.2779 62.166 23.2779 61.1579V57.4615C24.6274 58.4696 26.6516 59.4777 29.0132 59.8138C32.0495 60.4858 35.0858 59.4777 37.4474 57.4615C39.4716 55.7814 40.8211 53.0931 40.8211 50.7409C40.8211 42.3401 32.3869 40.996 28.3385 40.3239ZM85.0162 34.6113C84.6789 34.9474 84.3415 35.2834 83.6667 35.6194C83.3294 35.9555 82.3173 36.2915 81.9799 36.2915L80.9678 36.6275C79.6183 37.2996 77.5941 37.6356 75.5699 37.9717V28.5628C80.9678 28.5628 85.691 28.8988 86.7031 30.579V31.251C86.7031 31.9231 86.0283 33.2672 85.0162 34.6113ZM96.8241 52.7571C95.812 52.4211 94.4625 53.0931 94.1251 54.1012C93.4504 56.4534 92.7757 56.4534 92.4383 56.7895C92.1009 57.1255 91.4262 56.7895 90.4141 56.4534C90.4141 56.4534 90.0767 55.7814 89.7394 55.4454C89.402 54.7733 89.0646 52.085 89.0646 50.4049C89.0646 44.3563 87.7152 40.996 86.0283 39.3158C87.0404 38.6437 88.0525 37.6356 88.0525 37.6356C90.4141 34.2753 91.0888 31.5871 89.7394 29.2348C86.3657 23.5223 71.8589 25.2024 67.1357 25.8745C66.1236 25.8745 65.1115 27.2186 65.4489 28.2267C65.4489 29.2348 66.7984 30.2429 67.8105 29.9069C68.8226 29.9069 69.8347 29.5709 70.8468 29.5709V38.9798H69.8347C68.8226 38.9798 67.8105 39.9879 67.8105 40.996C67.8105 42.0041 68.8226 43.0122 69.8347 43.0122H70.8468V54.7733L68.1478 55.1093C67.1357 55.1093 66.1236 56.4534 66.461 57.4615C66.461 58.4696 67.8105 59.4777 68.8226 59.1417L78.6062 57.7976C79.6183 57.7976 80.6304 56.4534 80.2931 55.4454C80.2931 54.4373 78.9436 53.4292 77.9315 53.7652L74.8952 54.1012V42.3401C76.9194 42.0041 78.6062 41.668 80.2931 40.996H80.9678C81.6425 40.996 82.3173 41.332 82.6546 42.0041C83.3294 43.0122 84.0041 45.0283 84.3415 50.0688C84.3415 51.0769 84.6788 55.1093 85.3536 56.7895C85.6909 57.4615 86.7031 59.1417 88.3899 59.8138C89.7394 60.1498 91.4262 60.8219 93.4504 59.8138C95.1373 58.8057 96.4867 57.7976 97.1615 54.7733C98.5109 54.1012 97.8362 53.0931 96.8241 52.7571ZM170.37 46.3725C169.358 46.3725 168.346 47.3806 168.346 48.3887V51.0769C168.346 52.085 168.009 53.4292 167.671 53.7652C167.334 54.4373 166.997 54.7733 166.322 55.4454C165.984 55.7814 165.31 56.1174 164.635 56.4534C163.96 56.7895 163.623 56.7895 162.273 56.7895H160.924C155.526 57.1255 154.851 52.7571 154.851 51.749V43.0122C155.189 39.6518 155.863 37.2996 157.213 36.2915C158.225 35.6194 159.574 35.9555 161.936 36.6275C164.635 37.6356 166.322 40.6599 166.659 40.6599C166.997 41.332 168.009 41.668 169.021 41.668C170.033 41.332 170.37 40.6599 170.37 39.6518V30.579C170.37 29.5709 169.358 28.5628 168.346 28.5628C167.334 28.5628 166.322 29.5709 166.322 30.579V34.2753C165.647 33.6032 164.635 33.2672 163.623 32.5951C162.611 31.9231 158.562 30.2429 155.526 32.2591C153.164 33.9393 151.478 36.9636 151.14 42.0041V51.413C151.478 54.4373 153.839 60.4858 161.261 60.4858H162.273C163.623 60.4858 164.972 60.4858 166.322 59.8138C167.334 59.4777 168.346 58.8057 169.358 57.7976C170.033 57.1255 170.37 56.4534 171.045 55.4454C171.72 54.1012 172.057 51.749 172.394 51.0769V47.7166C172.394 47.0445 171.382 46.3725 170.37 46.3725ZM203.77 59.8138C203.77 58.8057 202.758 57.7976 201.745 57.7976C201.071 57.7976 200.059 57.7976 199.046 58.1336C199.046 54.7733 199.046 47.7166 198.709 24.8664H201.745C202.758 24.8664 203.77 23.8583 203.77 22.8502C203.77 21.8421 202.758 20.834 201.745 20.834L190.95 21.17C189.938 21.17 188.925 22.1781 188.925 23.1862C188.925 24.1943 189.938 25.2024 190.95 25.2024H194.323V39.3158L182.178 41.332V28.5628H185.552C186.564 28.5628 187.576 27.5547 187.576 26.5466C187.576 25.5385 186.564 24.5304 185.552 24.5304H174.756C173.744 24.5304 172.732 25.5385 172.732 26.5466C172.732 27.5547 173.744 28.5628 174.756 28.5628H178.13V55.7814H174.756C173.744 55.7814 172.732 56.7895 172.732 57.7976C172.732 58.8057 173.744 59.8138 174.756 59.8138L185.889 60.1498C186.901 60.1498 187.913 59.1417 187.913 58.1336C187.913 57.1255 186.901 56.1174 185.889 56.1174H182.515V45.7004L194.661 43.6842V59.1417C191.962 59.8138 189.938 59.8138 188.925 61.1579C188.251 61.83 188.251 63.1741 189.263 63.8462C189.938 64.5182 190.95 64.1822 192.299 63.8462C193.311 63.1741 197.36 62.8381 202.083 62.502C203.095 61.83 203.77 60.8219 203.77 59.8138Z" fill="white"/>
<path d="M106.608 40.6599L108.97 28.5628L113.355 39.6518L106.608 40.6599ZM124.488 44.0203C123.814 44.3563 122.802 44.6923 120.777 45.7004L118.078 39.3158L110.319 20.834C110.319 20.498 109.982 19.8259 109.644 19.8259C109.307 19.4899 108.632 19.1539 107.957 19.1539L99.1859 20.162C98.1738 20.162 97.1617 21.17 97.4991 22.5142C97.4991 23.5223 98.5112 24.5304 99.8606 24.1943C99.8606 24.1943 103.234 23.8583 105.933 23.5223C105.259 27.2186 102.222 42.3401 101.21 47.0445L95.1375 46.7085C94.1254 46.7085 93.1133 47.3806 93.1133 48.7247C93.1133 49.7328 93.788 50.7409 95.1375 50.7409L105.259 51.0769C106.271 51.0769 107.283 50.4049 107.283 49.0607C107.283 48.0526 106.608 47.0445 105.259 47.0445L105.596 44.0203L115.042 42.3401L117.066 47.3806C115.38 48.3887 114.705 48.7247 113.693 49.7328C113.018 50.7409 113.355 51.749 114.03 52.4211C115.042 53.0931 116.392 52.7571 117.066 52.085C118.078 50.7409 121.79 49.0607 125.501 47.7166C126.513 47.3806 127.187 46.0364 126.85 45.0283C126.513 44.3563 125.501 43.6842 124.488 44.0203Z" fill="white"/>
<path d="M148.779 23.5223C148.779 23.5223 142.706 23.8583 135.959 24.1943L122.801 24.5304C122.127 24.5304 121.789 24.8664 121.115 25.2024C120.777 25.5385 120.44 26.2105 120.777 26.8826L122.464 36.9636C122.464 37.9717 123.813 38.9798 124.826 38.6437C125.838 38.6437 126.512 37.6356 126.512 36.6275C126.512 36.6275 125.838 31.251 125.163 28.5627H133.935V55.1093H129.549C128.537 55.1093 127.525 56.1174 127.525 57.1255C127.525 58.1336 128.537 59.1417 129.549 59.1417L142.031 58.8057C143.043 58.8057 144.056 57.7976 144.056 56.7895C144.056 55.7814 143.043 54.7733 142.031 54.7733H137.983V28.2267C141.357 28.2267 144.393 27.8907 146.417 27.8907V31.9231C146.417 33.9393 146.754 34.6113 146.754 34.9474C147.429 35.9555 148.441 36.2915 149.453 35.6194C150.128 35.2834 150.466 34.2753 150.466 33.6032C150.466 33.6032 150.466 28.8988 150.803 26.2105C150.803 25.5385 150.803 25.2024 150.128 24.5304C150.128 23.8583 149.453 23.5223 148.779 23.5223ZM62.7499 48.3887C61.7378 48.3887 60.7257 49.3968 60.7257 50.4049V53.4291C60.7257 54.1012 60.3884 55.4453 60.051 56.1174C59.7136 56.7895 59.3763 57.1255 58.7015 57.7976C58.3642 58.1336 57.6894 58.4696 57.0147 58.8057C56.34 59.1417 56.0026 59.1417 54.6531 59.1417H53.3036C47.9058 59.1417 47.231 55.1093 47.231 54.1012V45.3644C47.5684 42.004 48.2431 39.6518 49.5926 38.6437C50.6047 37.9717 51.9542 38.3077 54.3158 38.9798C57.0147 39.9879 59.0389 43.0121 59.0389 43.0121C59.3763 43.6842 60.3884 44.0202 61.4005 44.0202C62.4126 43.6842 62.7499 43.0121 62.7499 42.004V32.9312C62.7499 31.9231 61.7378 30.915 60.7257 30.915C59.7136 30.915 58.7015 31.9231 58.7015 32.9312V36.6275C58.0268 35.9555 57.0147 35.2834 56.0026 34.9474C54.6531 34.2753 50.9421 32.9312 47.5684 34.6113C45.2068 36.2915 43.52 39.3158 43.1826 44.3563V53.7652C43.52 56.7895 45.8816 62.8381 53.641 62.8381H54.6531C56.0026 62.8381 57.3521 62.8381 58.7015 62.166C59.7136 61.83 60.7257 61.1579 61.7378 60.1498C62.4126 59.4777 62.7499 58.8057 63.4247 57.7976C64.0994 56.4534 64.4368 54.1012 64.7741 53.4291V50.0688C64.7741 49.3968 63.762 48.3887 62.7499 48.3887Z" fill="white"/>
</svg>
