<svg width="400" height="225" viewBox="0 0 400 225" fill="none" xmlns="http://www.w3.org/2000/svg">
<g opacity="0.75">
<path d="M98 156.972H136.25V176.203H168.125V156.972H302V92.8669H98V156.972Z" fill="#4B87E8" stroke="#2F5FB0" stroke-width="2"/>
<path opacity="0.25" d="M247.812 140.945H133.062C127.781 140.945 123.5 136.64 123.5 131.33C123.5 126.019 127.781 121.714 133.062 121.714H247.812C253.094 121.714 257.375 126.019 257.375 131.33C257.375 136.64 253.094 140.945 247.812 140.945Z" fill="white"/>
</g>
<path d="M98 90.7923H136.275V109.93H168.172V90.7923H302.135V27H98V90.7923Z" fill="#75D14A" stroke="#4C9E2D" stroke-width="2.2"/>
<path opacity="0.28" d="M247.912 74.8442H133.086C127.801 74.8442 123.517 70.5601 123.517 65.2754C123.517 59.9906 127.801 55.7065 133.086 55.7065H247.912C253.197 55.7065 257.481 59.9906 257.481 65.2754C257.481 70.5601 253.197 74.8442 247.912 74.8442Z" fill="white"/>
</svg>
